<mxfile host="app.diagrams.net" modified="2023-08-17T03:31:55.583Z" agent="Mozilla/5.0 (Macintosh; Intel Mac OS X 10_15_7) AppleWebKit/537.36 (KHTML, like Gecko) Chrome/114.0.0.0 Safari/537.36" etag="F34AELHs7q-GK98DzcS5" version="21.6.5" type="device">
  <diagram name="Page-1" id="L9pgTuRZYYC1K3Q5Xu9Y">
    <mxGraphModel dx="995" dy="513" grid="0" gridSize="10" guides="1" tooltips="1" connect="1" arrows="1" fold="1" page="1" pageScale="1" pageWidth="827" pageHeight="1169" math="0" shadow="0">
      <root>
        <mxCell id="0" />
        <mxCell id="1" parent="0" />
        <mxCell id="ynpUtE7QQ3pSsfp8GMd7-4" style="edgeStyle=orthogonalEdgeStyle;rounded=0;orthogonalLoop=1;jettySize=auto;html=1;exitX=0.5;exitY=1;exitDx=0;exitDy=0;entryX=0.5;entryY=0;entryDx=0;entryDy=0;" edge="1" parent="1" source="ynpUtE7QQ3pSsfp8GMd7-2" target="ynpUtE7QQ3pSsfp8GMd7-3">
          <mxGeometry relative="1" as="geometry" />
        </mxCell>
        <mxCell id="ynpUtE7QQ3pSsfp8GMd7-5" value="1.reserve a room" style="edgeLabel;html=1;align=center;verticalAlign=middle;resizable=0;points=[];" vertex="1" connectable="0" parent="ynpUtE7QQ3pSsfp8GMd7-4">
          <mxGeometry x="0.0047" y="1" relative="1" as="geometry">
            <mxPoint as="offset" />
          </mxGeometry>
        </mxCell>
        <mxCell id="ynpUtE7QQ3pSsfp8GMd7-44" style="edgeStyle=orthogonalEdgeStyle;rounded=0;orthogonalLoop=1;jettySize=auto;html=1;entryX=0.5;entryY=0;entryDx=0;entryDy=0;" edge="1" parent="1" source="ynpUtE7QQ3pSsfp8GMd7-2">
          <mxGeometry relative="1" as="geometry">
            <mxPoint x="413.5" y="144" as="targetPoint" />
          </mxGeometry>
        </mxCell>
        <mxCell id="ynpUtE7QQ3pSsfp8GMd7-45" value="2" style="edgeLabel;html=1;align=center;verticalAlign=middle;resizable=0;points=[];" vertex="1" connectable="0" parent="ynpUtE7QQ3pSsfp8GMd7-44">
          <mxGeometry x="0.3613" y="1" relative="1" as="geometry">
            <mxPoint y="1" as="offset" />
          </mxGeometry>
        </mxCell>
        <mxCell id="ynpUtE7QQ3pSsfp8GMd7-63" style="edgeStyle=orthogonalEdgeStyle;rounded=0;orthogonalLoop=1;jettySize=auto;html=1;exitX=0.5;exitY=1;exitDx=0;exitDy=0;" edge="1" parent="1" source="ynpUtE7QQ3pSsfp8GMd7-2" target="ynpUtE7QQ3pSsfp8GMd7-62">
          <mxGeometry relative="1" as="geometry">
            <Array as="points">
              <mxPoint x="414" y="114" />
              <mxPoint x="619" y="114" />
            </Array>
          </mxGeometry>
        </mxCell>
        <mxCell id="ynpUtE7QQ3pSsfp8GMd7-64" value="3" style="edgeLabel;html=1;align=center;verticalAlign=middle;resizable=0;points=[];" vertex="1" connectable="0" parent="ynpUtE7QQ3pSsfp8GMd7-63">
          <mxGeometry x="0.2385" y="-2" relative="1" as="geometry">
            <mxPoint as="offset" />
          </mxGeometry>
        </mxCell>
        <mxCell id="ynpUtE7QQ3pSsfp8GMd7-71" style="edgeStyle=orthogonalEdgeStyle;rounded=0;orthogonalLoop=1;jettySize=auto;html=1;exitX=0.5;exitY=1;exitDx=0;exitDy=0;entryX=0;entryY=0.5;entryDx=0;entryDy=0;" edge="1" parent="1" source="ynpUtE7QQ3pSsfp8GMd7-2" target="ynpUtE7QQ3pSsfp8GMd7-70">
          <mxGeometry relative="1" as="geometry">
            <mxPoint x="934" y="127" as="targetPoint" />
            <Array as="points">
              <mxPoint x="414" y="95" />
              <mxPoint x="1037" y="95" />
            </Array>
          </mxGeometry>
        </mxCell>
        <mxCell id="ynpUtE7QQ3pSsfp8GMd7-72" value="4" style="edgeLabel;html=1;align=center;verticalAlign=middle;resizable=0;points=[];" vertex="1" connectable="0" parent="ynpUtE7QQ3pSsfp8GMd7-71">
          <mxGeometry x="-0.1533" y="-2" relative="1" as="geometry">
            <mxPoint as="offset" />
          </mxGeometry>
        </mxCell>
        <mxCell id="ynpUtE7QQ3pSsfp8GMd7-2" value="&lt;font style=&quot;font-size: 14px;&quot;&gt;Main Menu&lt;/font&gt;" style="rounded=1;whiteSpace=wrap;html=1;" vertex="1" parent="1">
          <mxGeometry x="354" y="25" width="120" height="60" as="geometry" />
        </mxCell>
        <mxCell id="ynpUtE7QQ3pSsfp8GMd7-3" value="input chekin and checkout date" style="rounded=1;whiteSpace=wrap;html=1;" vertex="1" parent="1">
          <mxGeometry x="40.5" y="144" width="195" height="53" as="geometry" />
        </mxCell>
        <mxCell id="ynpUtE7QQ3pSsfp8GMd7-11" value="" style="edgeStyle=orthogonalEdgeStyle;rounded=0;orthogonalLoop=1;jettySize=auto;html=1;exitX=0.5;exitY=1;exitDx=0;exitDy=0;" edge="1" parent="1" source="ynpUtE7QQ3pSsfp8GMd7-3" target="ynpUtE7QQ3pSsfp8GMd7-10">
          <mxGeometry relative="1" as="geometry">
            <mxPoint x="137.5" y="287" as="sourcePoint" />
          </mxGeometry>
        </mxCell>
        <mxCell id="ynpUtE7QQ3pSsfp8GMd7-13" value="" style="edgeStyle=orthogonalEdgeStyle;rounded=0;orthogonalLoop=1;jettySize=auto;html=1;" edge="1" parent="1" source="ynpUtE7QQ3pSsfp8GMd7-10" target="ynpUtE7QQ3pSsfp8GMd7-12">
          <mxGeometry relative="1" as="geometry" />
        </mxCell>
        <mxCell id="ynpUtE7QQ3pSsfp8GMd7-14" value="y" style="edgeLabel;html=1;align=center;verticalAlign=middle;resizable=0;points=[];" vertex="1" connectable="0" parent="ynpUtE7QQ3pSsfp8GMd7-13">
          <mxGeometry x="0.1135" relative="1" as="geometry">
            <mxPoint as="offset" />
          </mxGeometry>
        </mxCell>
        <mxCell id="ynpUtE7QQ3pSsfp8GMd7-15" value="" style="edgeStyle=orthogonalEdgeStyle;rounded=0;orthogonalLoop=1;jettySize=auto;html=1;" edge="1" parent="1" source="ynpUtE7QQ3pSsfp8GMd7-10" target="ynpUtE7QQ3pSsfp8GMd7-12">
          <mxGeometry relative="1" as="geometry" />
        </mxCell>
        <mxCell id="ynpUtE7QQ3pSsfp8GMd7-17" value="" style="edgeStyle=orthogonalEdgeStyle;rounded=0;orthogonalLoop=1;jettySize=auto;html=1;exitX=0.5;exitY=1;exitDx=0;exitDy=0;" edge="1" parent="1" source="ynpUtE7QQ3pSsfp8GMd7-10" target="ynpUtE7QQ3pSsfp8GMd7-16">
          <mxGeometry relative="1" as="geometry">
            <mxPoint x="122" y="287" as="sourcePoint" />
          </mxGeometry>
        </mxCell>
        <mxCell id="ynpUtE7QQ3pSsfp8GMd7-18" value="n" style="edgeLabel;html=1;align=center;verticalAlign=middle;resizable=0;points=[];" vertex="1" connectable="0" parent="ynpUtE7QQ3pSsfp8GMd7-17">
          <mxGeometry x="0.313" y="2" relative="1" as="geometry">
            <mxPoint x="1" as="offset" />
          </mxGeometry>
        </mxCell>
        <mxCell id="ynpUtE7QQ3pSsfp8GMd7-10" value="any room available?" style="rhombus;whiteSpace=wrap;html=1;rounded=1;" vertex="1" parent="1">
          <mxGeometry x="66" y="233" width="143" height="54" as="geometry" />
        </mxCell>
        <mxCell id="ynpUtE7QQ3pSsfp8GMd7-24" value="" style="edgeStyle=orthogonalEdgeStyle;rounded=0;orthogonalLoop=1;jettySize=auto;html=1;" edge="1" parent="1" source="ynpUtE7QQ3pSsfp8GMd7-12" target="ynpUtE7QQ3pSsfp8GMd7-23">
          <mxGeometry relative="1" as="geometry" />
        </mxCell>
        <mxCell id="ynpUtE7QQ3pSsfp8GMd7-12" value="display available rooms" style="whiteSpace=wrap;html=1;rounded=1;" vertex="1" parent="1">
          <mxGeometry x="18" y="320" width="120" height="60" as="geometry" />
        </mxCell>
        <mxCell id="ynpUtE7QQ3pSsfp8GMd7-25" style="edgeStyle=orthogonalEdgeStyle;rounded=0;orthogonalLoop=1;jettySize=auto;html=1;exitX=0.5;exitY=1;exitDx=0;exitDy=0;entryX=0.5;entryY=0;entryDx=0;entryDy=0;" edge="1" parent="1" source="ynpUtE7QQ3pSsfp8GMd7-16" target="ynpUtE7QQ3pSsfp8GMd7-23">
          <mxGeometry relative="1" as="geometry" />
        </mxCell>
        <mxCell id="ynpUtE7QQ3pSsfp8GMd7-16" value="display recommended rooms or nothing" style="whiteSpace=wrap;html=1;rounded=1;" vertex="1" parent="1">
          <mxGeometry x="154" y="320" width="120" height="60" as="geometry" />
        </mxCell>
        <mxCell id="ynpUtE7QQ3pSsfp8GMd7-27" value="" style="edgeStyle=orthogonalEdgeStyle;rounded=0;orthogonalLoop=1;jettySize=auto;html=1;" edge="1" parent="1" source="ynpUtE7QQ3pSsfp8GMd7-23" target="ynpUtE7QQ3pSsfp8GMd7-26">
          <mxGeometry relative="1" as="geometry" />
        </mxCell>
        <mxCell id="ynpUtE7QQ3pSsfp8GMd7-28" value="y" style="edgeLabel;html=1;align=center;verticalAlign=middle;resizable=0;points=[];" vertex="1" connectable="0" parent="ynpUtE7QQ3pSsfp8GMd7-27">
          <mxGeometry x="-0.5918" y="-1" relative="1" as="geometry">
            <mxPoint as="offset" />
          </mxGeometry>
        </mxCell>
        <mxCell id="ynpUtE7QQ3pSsfp8GMd7-39" style="edgeStyle=orthogonalEdgeStyle;rounded=0;orthogonalLoop=1;jettySize=auto;html=1;entryX=0;entryY=0.5;entryDx=0;entryDy=0;" edge="1" parent="1" source="ynpUtE7QQ3pSsfp8GMd7-23" target="ynpUtE7QQ3pSsfp8GMd7-37">
          <mxGeometry relative="1" as="geometry">
            <Array as="points">
              <mxPoint x="48" y="447" />
              <mxPoint x="48" y="809" />
            </Array>
          </mxGeometry>
        </mxCell>
        <mxCell id="ynpUtE7QQ3pSsfp8GMd7-40" value="n" style="edgeLabel;html=1;align=center;verticalAlign=middle;resizable=0;points=[];" vertex="1" connectable="0" parent="ynpUtE7QQ3pSsfp8GMd7-39">
          <mxGeometry x="0.2434" y="-1" relative="1" as="geometry">
            <mxPoint y="1" as="offset" />
          </mxGeometry>
        </mxCell>
        <mxCell id="ynpUtE7QQ3pSsfp8GMd7-23" value="reserve a room?" style="rhombus;whiteSpace=wrap;html=1;rounded=1;" vertex="1" parent="1">
          <mxGeometry x="73" y="414" width="133" height="65" as="geometry" />
        </mxCell>
        <mxCell id="ynpUtE7QQ3pSsfp8GMd7-32" value="" style="edgeStyle=orthogonalEdgeStyle;rounded=0;orthogonalLoop=1;jettySize=auto;html=1;" edge="1" parent="1" source="ynpUtE7QQ3pSsfp8GMd7-26" target="ynpUtE7QQ3pSsfp8GMd7-31">
          <mxGeometry relative="1" as="geometry" />
        </mxCell>
        <mxCell id="ynpUtE7QQ3pSsfp8GMd7-41" style="edgeStyle=orthogonalEdgeStyle;rounded=0;orthogonalLoop=1;jettySize=auto;html=1;exitX=0;exitY=0.5;exitDx=0;exitDy=0;entryX=0;entryY=0.5;entryDx=0;entryDy=0;" edge="1" parent="1" source="ynpUtE7QQ3pSsfp8GMd7-26" target="ynpUtE7QQ3pSsfp8GMd7-37">
          <mxGeometry relative="1" as="geometry">
            <Array as="points">
              <mxPoint x="66" y="543" />
              <mxPoint x="66" y="809" />
            </Array>
          </mxGeometry>
        </mxCell>
        <mxCell id="ynpUtE7QQ3pSsfp8GMd7-42" value="n" style="edgeLabel;html=1;align=center;verticalAlign=middle;resizable=0;points=[];" vertex="1" connectable="0" parent="ynpUtE7QQ3pSsfp8GMd7-41">
          <mxGeometry x="-0.1115" relative="1" as="geometry">
            <mxPoint y="1" as="offset" />
          </mxGeometry>
        </mxCell>
        <mxCell id="ynpUtE7QQ3pSsfp8GMd7-26" value="have an account?" style="rhombus;whiteSpace=wrap;html=1;rounded=1;" vertex="1" parent="1">
          <mxGeometry x="73" y="510" width="133" height="65" as="geometry" />
        </mxCell>
        <mxCell id="ynpUtE7QQ3pSsfp8GMd7-34" value="" style="edgeStyle=orthogonalEdgeStyle;rounded=0;orthogonalLoop=1;jettySize=auto;html=1;" edge="1" parent="1" source="ynpUtE7QQ3pSsfp8GMd7-31" target="ynpUtE7QQ3pSsfp8GMd7-33">
          <mxGeometry relative="1" as="geometry" />
        </mxCell>
        <mxCell id="ynpUtE7QQ3pSsfp8GMd7-31" value="choose an available room" style="whiteSpace=wrap;html=1;rounded=1;" vertex="1" parent="1">
          <mxGeometry x="79.5" y="599" width="120" height="60" as="geometry" />
        </mxCell>
        <mxCell id="ynpUtE7QQ3pSsfp8GMd7-38" value="" style="edgeStyle=orthogonalEdgeStyle;rounded=0;orthogonalLoop=1;jettySize=auto;html=1;" edge="1" parent="1" source="ynpUtE7QQ3pSsfp8GMd7-33" target="ynpUtE7QQ3pSsfp8GMd7-37">
          <mxGeometry relative="1" as="geometry" />
        </mxCell>
        <mxCell id="ynpUtE7QQ3pSsfp8GMd7-33" value="display reservation information" style="whiteSpace=wrap;html=1;rounded=1;" vertex="1" parent="1">
          <mxGeometry x="79.5" y="689" width="120" height="60" as="geometry" />
        </mxCell>
        <mxCell id="ynpUtE7QQ3pSsfp8GMd7-43" style="edgeStyle=orthogonalEdgeStyle;rounded=0;orthogonalLoop=1;jettySize=auto;html=1;entryX=0;entryY=0.5;entryDx=0;entryDy=0;" edge="1" parent="1" source="ynpUtE7QQ3pSsfp8GMd7-37" target="ynpUtE7QQ3pSsfp8GMd7-2">
          <mxGeometry relative="1" as="geometry">
            <mxPoint x="10" y="466" as="targetPoint" />
            <Array as="points">
              <mxPoint x="140" y="855" />
              <mxPoint x="10" y="855" />
              <mxPoint x="10" y="55" />
            </Array>
          </mxGeometry>
        </mxCell>
        <mxCell id="ynpUtE7QQ3pSsfp8GMd7-37" value="display end message" style="whiteSpace=wrap;html=1;rounded=1;" vertex="1" parent="1">
          <mxGeometry x="79.5" y="779" width="120" height="60" as="geometry" />
        </mxCell>
        <mxCell id="ynpUtE7QQ3pSsfp8GMd7-48" value="" style="edgeStyle=orthogonalEdgeStyle;rounded=0;orthogonalLoop=1;jettySize=auto;html=1;" edge="1" parent="1" source="ynpUtE7QQ3pSsfp8GMd7-46" target="ynpUtE7QQ3pSsfp8GMd7-47">
          <mxGeometry relative="1" as="geometry" />
        </mxCell>
        <mxCell id="ynpUtE7QQ3pSsfp8GMd7-56" value="y" style="edgeLabel;html=1;align=center;verticalAlign=middle;resizable=0;points=[];" vertex="1" connectable="0" parent="ynpUtE7QQ3pSsfp8GMd7-48">
          <mxGeometry x="-0.5586" relative="1" as="geometry">
            <mxPoint as="offset" />
          </mxGeometry>
        </mxCell>
        <mxCell id="ynpUtE7QQ3pSsfp8GMd7-57" style="edgeStyle=orthogonalEdgeStyle;rounded=0;orthogonalLoop=1;jettySize=auto;html=1;exitX=0;exitY=0.5;exitDx=0;exitDy=0;entryX=0;entryY=0.5;entryDx=0;entryDy=0;" edge="1" parent="1" source="ynpUtE7QQ3pSsfp8GMd7-46" target="ynpUtE7QQ3pSsfp8GMd7-53">
          <mxGeometry relative="1" as="geometry">
            <Array as="points">
              <mxPoint x="336" y="175" />
              <mxPoint x="336" y="480" />
            </Array>
          </mxGeometry>
        </mxCell>
        <mxCell id="ynpUtE7QQ3pSsfp8GMd7-58" value="n" style="edgeLabel;html=1;align=center;verticalAlign=middle;resizable=0;points=[];" vertex="1" connectable="0" parent="ynpUtE7QQ3pSsfp8GMd7-57">
          <mxGeometry x="-0.0897" y="-1" relative="1" as="geometry">
            <mxPoint as="offset" />
          </mxGeometry>
        </mxCell>
        <mxCell id="ynpUtE7QQ3pSsfp8GMd7-46" value="have an account?" style="rhombus;whiteSpace=wrap;html=1;rounded=1;" vertex="1" parent="1">
          <mxGeometry x="347" y="142" width="133" height="65" as="geometry" />
        </mxCell>
        <mxCell id="ynpUtE7QQ3pSsfp8GMd7-50" value="" style="edgeStyle=orthogonalEdgeStyle;rounded=0;orthogonalLoop=1;jettySize=auto;html=1;" edge="1" parent="1" source="ynpUtE7QQ3pSsfp8GMd7-47" target="ynpUtE7QQ3pSsfp8GMd7-49">
          <mxGeometry relative="1" as="geometry" />
        </mxCell>
        <mxCell id="ynpUtE7QQ3pSsfp8GMd7-47" value="enter account message" style="whiteSpace=wrap;html=1;rounded=1;" vertex="1" parent="1">
          <mxGeometry x="354" y="247" width="120" height="60" as="geometry" />
        </mxCell>
        <mxCell id="ynpUtE7QQ3pSsfp8GMd7-54" value="" style="edgeStyle=orthogonalEdgeStyle;rounded=0;orthogonalLoop=1;jettySize=auto;html=1;" edge="1" parent="1" source="ynpUtE7QQ3pSsfp8GMd7-49" target="ynpUtE7QQ3pSsfp8GMd7-53">
          <mxGeometry relative="1" as="geometry" />
        </mxCell>
        <mxCell id="ynpUtE7QQ3pSsfp8GMd7-49" value="display reservations" style="whiteSpace=wrap;html=1;rounded=1;" vertex="1" parent="1">
          <mxGeometry x="354" y="356" width="120" height="60" as="geometry" />
        </mxCell>
        <mxCell id="ynpUtE7QQ3pSsfp8GMd7-55" style="edgeStyle=orthogonalEdgeStyle;rounded=0;orthogonalLoop=1;jettySize=auto;html=1;entryX=0;entryY=0.5;entryDx=0;entryDy=0;exitX=0.5;exitY=1;exitDx=0;exitDy=0;" edge="1" parent="1" source="ynpUtE7QQ3pSsfp8GMd7-53" target="ynpUtE7QQ3pSsfp8GMd7-2">
          <mxGeometry relative="1" as="geometry">
            <Array as="points">
              <mxPoint x="414" y="534" />
              <mxPoint x="320" y="534" />
              <mxPoint x="320" y="55" />
            </Array>
          </mxGeometry>
        </mxCell>
        <mxCell id="ynpUtE7QQ3pSsfp8GMd7-53" value="display ending message" style="whiteSpace=wrap;html=1;rounded=1;" vertex="1" parent="1">
          <mxGeometry x="354" y="450" width="120" height="60" as="geometry" />
        </mxCell>
        <mxCell id="ynpUtE7QQ3pSsfp8GMd7-66" value="" style="edgeStyle=orthogonalEdgeStyle;rounded=0;orthogonalLoop=1;jettySize=auto;html=1;" edge="1" parent="1" source="ynpUtE7QQ3pSsfp8GMd7-62" target="ynpUtE7QQ3pSsfp8GMd7-65">
          <mxGeometry relative="1" as="geometry" />
        </mxCell>
        <mxCell id="ynpUtE7QQ3pSsfp8GMd7-62" value="input user info" style="rounded=1;whiteSpace=wrap;html=1;" vertex="1" parent="1">
          <mxGeometry x="561" y="148" width="115" height="53" as="geometry" />
        </mxCell>
        <mxCell id="ynpUtE7QQ3pSsfp8GMd7-68" value="" style="edgeStyle=orthogonalEdgeStyle;rounded=0;orthogonalLoop=1;jettySize=auto;html=1;" edge="1" parent="1" source="ynpUtE7QQ3pSsfp8GMd7-65" target="ynpUtE7QQ3pSsfp8GMd7-67">
          <mxGeometry relative="1" as="geometry" />
        </mxCell>
        <mxCell id="ynpUtE7QQ3pSsfp8GMd7-65" value="check email duplication and validity" style="rounded=1;whiteSpace=wrap;html=1;" vertex="1" parent="1">
          <mxGeometry x="561" y="247" width="116" height="53" as="geometry" />
        </mxCell>
        <mxCell id="ynpUtE7QQ3pSsfp8GMd7-69" style="edgeStyle=orthogonalEdgeStyle;rounded=0;orthogonalLoop=1;jettySize=auto;html=1;entryX=1;entryY=0.5;entryDx=0;entryDy=0;" edge="1" parent="1" source="ynpUtE7QQ3pSsfp8GMd7-67" target="ynpUtE7QQ3pSsfp8GMd7-2">
          <mxGeometry relative="1" as="geometry" />
        </mxCell>
        <mxCell id="ynpUtE7QQ3pSsfp8GMd7-67" value="create successful" style="rounded=1;whiteSpace=wrap;html=1;" vertex="1" parent="1">
          <mxGeometry x="561" y="359.5" width="117" height="53" as="geometry" />
        </mxCell>
        <mxCell id="ynpUtE7QQ3pSsfp8GMd7-76" style="edgeStyle=orthogonalEdgeStyle;rounded=0;orthogonalLoop=1;jettySize=auto;html=1;entryX=0.5;entryY=0;entryDx=0;entryDy=0;exitX=0.5;exitY=1;exitDx=0;exitDy=0;" edge="1" parent="1" source="ynpUtE7QQ3pSsfp8GMd7-70" target="ynpUtE7QQ3pSsfp8GMd7-75">
          <mxGeometry relative="1" as="geometry" />
        </mxCell>
        <mxCell id="ynpUtE7QQ3pSsfp8GMd7-77" value="1" style="edgeLabel;html=1;align=center;verticalAlign=middle;resizable=0;points=[];" vertex="1" connectable="0" parent="ynpUtE7QQ3pSsfp8GMd7-76">
          <mxGeometry x="0.0789" relative="1" as="geometry">
            <mxPoint as="offset" />
          </mxGeometry>
        </mxCell>
        <mxCell id="ynpUtE7QQ3pSsfp8GMd7-81" style="edgeStyle=orthogonalEdgeStyle;rounded=0;orthogonalLoop=1;jettySize=auto;html=1;" edge="1" parent="1" source="ynpUtE7QQ3pSsfp8GMd7-70" target="ynpUtE7QQ3pSsfp8GMd7-80">
          <mxGeometry relative="1" as="geometry" />
        </mxCell>
        <mxCell id="ynpUtE7QQ3pSsfp8GMd7-82" value="2" style="edgeLabel;html=1;align=center;verticalAlign=middle;resizable=0;points=[];" vertex="1" connectable="0" parent="ynpUtE7QQ3pSsfp8GMd7-81">
          <mxGeometry x="0.664" relative="1" as="geometry">
            <mxPoint as="offset" />
          </mxGeometry>
        </mxCell>
        <mxCell id="ynpUtE7QQ3pSsfp8GMd7-84" style="edgeStyle=orthogonalEdgeStyle;rounded=0;orthogonalLoop=1;jettySize=auto;html=1;entryX=0.5;entryY=0;entryDx=0;entryDy=0;" edge="1" parent="1" source="ynpUtE7QQ3pSsfp8GMd7-70" target="ynpUtE7QQ3pSsfp8GMd7-83">
          <mxGeometry relative="1" as="geometry" />
        </mxCell>
        <mxCell id="ynpUtE7QQ3pSsfp8GMd7-85" value="3" style="edgeLabel;html=1;align=center;verticalAlign=middle;resizable=0;points=[];" vertex="1" connectable="0" parent="ynpUtE7QQ3pSsfp8GMd7-84">
          <mxGeometry x="0.2125" y="-1" relative="1" as="geometry">
            <mxPoint as="offset" />
          </mxGeometry>
        </mxCell>
        <mxCell id="ynpUtE7QQ3pSsfp8GMd7-87" style="edgeStyle=orthogonalEdgeStyle;rounded=0;orthogonalLoop=1;jettySize=auto;html=1;exitX=0.5;exitY=1;exitDx=0;exitDy=0;" edge="1" parent="1" source="ynpUtE7QQ3pSsfp8GMd7-70" target="ynpUtE7QQ3pSsfp8GMd7-86">
          <mxGeometry relative="1" as="geometry" />
        </mxCell>
        <mxCell id="ynpUtE7QQ3pSsfp8GMd7-88" value="4" style="edgeLabel;html=1;align=center;verticalAlign=middle;resizable=0;points=[];" vertex="1" connectable="0" parent="ynpUtE7QQ3pSsfp8GMd7-87">
          <mxGeometry x="0.6807" y="-3" relative="1" as="geometry">
            <mxPoint as="offset" />
          </mxGeometry>
        </mxCell>
        <mxCell id="ynpUtE7QQ3pSsfp8GMd7-94" style="edgeStyle=orthogonalEdgeStyle;rounded=0;orthogonalLoop=1;jettySize=auto;html=1;entryX=0.5;entryY=0;entryDx=0;entryDy=0;exitX=0.5;exitY=0;exitDx=0;exitDy=0;" edge="1" parent="1" source="ynpUtE7QQ3pSsfp8GMd7-70" target="ynpUtE7QQ3pSsfp8GMd7-2">
          <mxGeometry relative="1" as="geometry">
            <Array as="points">
              <mxPoint x="1098" y="11" />
              <mxPoint x="414" y="11" />
            </Array>
          </mxGeometry>
        </mxCell>
        <mxCell id="ynpUtE7QQ3pSsfp8GMd7-95" value="5" style="edgeLabel;html=1;align=center;verticalAlign=middle;resizable=0;points=[];" vertex="1" connectable="0" parent="ynpUtE7QQ3pSsfp8GMd7-94">
          <mxGeometry x="0.2515" y="-3" relative="1" as="geometry">
            <mxPoint as="offset" />
          </mxGeometry>
        </mxCell>
        <mxCell id="ynpUtE7QQ3pSsfp8GMd7-70" value="&lt;font style=&quot;font-size: 14px;&quot;&gt;Admin Menu&lt;/font&gt;" style="rounded=1;whiteSpace=wrap;html=1;" vertex="1" parent="1">
          <mxGeometry x="1038" y="66" width="120" height="60" as="geometry" />
        </mxCell>
        <mxCell id="ynpUtE7QQ3pSsfp8GMd7-103" style="edgeStyle=orthogonalEdgeStyle;rounded=0;orthogonalLoop=1;jettySize=auto;html=1;entryX=0;entryY=0.5;entryDx=0;entryDy=0;exitX=0.5;exitY=1;exitDx=0;exitDy=0;" edge="1" parent="1" source="ynpUtE7QQ3pSsfp8GMd7-75" target="ynpUtE7QQ3pSsfp8GMd7-98">
          <mxGeometry relative="1" as="geometry" />
        </mxCell>
        <mxCell id="ynpUtE7QQ3pSsfp8GMd7-75" value="display customers" style="rounded=1;whiteSpace=wrap;html=1;" vertex="1" parent="1">
          <mxGeometry x="827" y="197" width="115" height="53" as="geometry" />
        </mxCell>
        <mxCell id="ynpUtE7QQ3pSsfp8GMd7-102" style="edgeStyle=orthogonalEdgeStyle;rounded=0;orthogonalLoop=1;jettySize=auto;html=1;exitX=0.5;exitY=1;exitDx=0;exitDy=0;entryX=0;entryY=0.5;entryDx=0;entryDy=0;" edge="1" parent="1" source="ynpUtE7QQ3pSsfp8GMd7-80" target="ynpUtE7QQ3pSsfp8GMd7-98">
          <mxGeometry relative="1" as="geometry" />
        </mxCell>
        <mxCell id="ynpUtE7QQ3pSsfp8GMd7-80" value="display rooms" style="rounded=1;whiteSpace=wrap;html=1;" vertex="1" parent="1">
          <mxGeometry x="985" y="197" width="115" height="53" as="geometry" />
        </mxCell>
        <mxCell id="ynpUtE7QQ3pSsfp8GMd7-100" style="edgeStyle=orthogonalEdgeStyle;rounded=0;orthogonalLoop=1;jettySize=auto;html=1;entryX=0;entryY=0.5;entryDx=0;entryDy=0;exitX=0.5;exitY=1;exitDx=0;exitDy=0;" edge="1" parent="1" source="ynpUtE7QQ3pSsfp8GMd7-83" target="ynpUtE7QQ3pSsfp8GMd7-98">
          <mxGeometry relative="1" as="geometry" />
        </mxCell>
        <mxCell id="ynpUtE7QQ3pSsfp8GMd7-83" value="display reservations" style="rounded=1;whiteSpace=wrap;html=1;" vertex="1" parent="1">
          <mxGeometry x="1153" y="197" width="115" height="53" as="geometry" />
        </mxCell>
        <mxCell id="ynpUtE7QQ3pSsfp8GMd7-90" value="" style="edgeStyle=orthogonalEdgeStyle;rounded=0;orthogonalLoop=1;jettySize=auto;html=1;" edge="1" parent="1" source="ynpUtE7QQ3pSsfp8GMd7-86" target="ynpUtE7QQ3pSsfp8GMd7-89">
          <mxGeometry relative="1" as="geometry" />
        </mxCell>
        <mxCell id="ynpUtE7QQ3pSsfp8GMd7-86" value="enter room info" style="rounded=1;whiteSpace=wrap;html=1;" vertex="1" parent="1">
          <mxGeometry x="1325" y="197" width="115" height="53" as="geometry" />
        </mxCell>
        <mxCell id="ynpUtE7QQ3pSsfp8GMd7-92" value="" style="edgeStyle=orthogonalEdgeStyle;rounded=0;orthogonalLoop=1;jettySize=auto;html=1;" edge="1" parent="1" source="ynpUtE7QQ3pSsfp8GMd7-89" target="ynpUtE7QQ3pSsfp8GMd7-91">
          <mxGeometry relative="1" as="geometry" />
        </mxCell>
        <mxCell id="ynpUtE7QQ3pSsfp8GMd7-89" value="check info validity" style="rounded=1;whiteSpace=wrap;html=1;" vertex="1" parent="1">
          <mxGeometry x="1325" y="287" width="115" height="53" as="geometry" />
        </mxCell>
        <mxCell id="ynpUtE7QQ3pSsfp8GMd7-96" style="edgeStyle=orthogonalEdgeStyle;rounded=0;orthogonalLoop=1;jettySize=auto;html=1;entryX=1;entryY=0.5;entryDx=0;entryDy=0;exitX=1;exitY=0.5;exitDx=0;exitDy=0;" edge="1" parent="1" source="ynpUtE7QQ3pSsfp8GMd7-98" target="ynpUtE7QQ3pSsfp8GMd7-70">
          <mxGeometry relative="1" as="geometry">
            <Array as="points">
              <mxPoint x="1440" y="493" />
              <mxPoint x="1489" y="493" />
              <mxPoint x="1489" y="96" />
            </Array>
          </mxGeometry>
        </mxCell>
        <mxCell id="ynpUtE7QQ3pSsfp8GMd7-99" value="" style="edgeStyle=orthogonalEdgeStyle;rounded=0;orthogonalLoop=1;jettySize=auto;html=1;" edge="1" parent="1" source="ynpUtE7QQ3pSsfp8GMd7-91" target="ynpUtE7QQ3pSsfp8GMd7-98">
          <mxGeometry relative="1" as="geometry" />
        </mxCell>
        <mxCell id="ynpUtE7QQ3pSsfp8GMd7-91" value="success" style="rounded=1;whiteSpace=wrap;html=1;" vertex="1" parent="1">
          <mxGeometry x="1325" y="377" width="115" height="53" as="geometry" />
        </mxCell>
        <mxCell id="ynpUtE7QQ3pSsfp8GMd7-98" value="ending message" style="rounded=1;whiteSpace=wrap;html=1;" vertex="1" parent="1">
          <mxGeometry x="1325" y="472" width="115" height="53" as="geometry" />
        </mxCell>
      </root>
    </mxGraphModel>
  </diagram>
</mxfile>
